<svg width="2250" height="2250" viewBox="0 0 2250 2250" fill="none" xmlns="http://www.w3.org/2000/svg">
<g clip-path="url(#clip0_2_5)">
<rect width="2250" height="2250" rx="300" fill="black"/>
<path d="M2043.77 1034.69C2005.28 1034.69 1979.63 1012.12 1979.63 965.793V699.709C1979.63 529.842 1909.64 436 1728.86 436H1644.89V615.368H1670.55C1741.69 615.368 1775.52 654.569 1775.52 724.653V959.854C1775.52 1062.01 1805.84 1103.59 1872.32 1124.97C1805.84 1145.16 1775.52 1187.93 1775.52 1290.08V1464.7C1775.52 1513.4 1775.52 1560.92 1762.69 1609.62C1749.86 1654.76 1728.86 1697.52 1699.71 1734.35C1683.38 1755.73 1664.72 1773.55 1643.73 1790.18V1813.94H1727.7C1908.48 1813.94 1978.46 1720.09 1978.46 1550.23V1284.14C1978.46 1236.63 2002.95 1215.25 2042.6 1215.25H2090.43V1035.88H2043.77V1034.69Z" fill="white"/>
<path d="M1472.27 706.874H1213.35C1207.51 706.874 1202.85 702.122 1202.85 696.183V675.991C1202.85 670.05 1207.51 665.299 1213.35 665.299H1473.44C1479.27 665.299 1483.93 670.05 1483.93 675.991V696.183C1483.93 702.122 1478.1 706.874 1472.27 706.874Z" fill="white"/>
<path d="M1516.59 963.444H1327.65C1321.81 963.444 1317.15 958.69 1317.15 952.751V932.559C1317.15 926.621 1321.81 921.868 1327.65 921.868H1516.59C1522.42 921.868 1527.08 926.621 1527.08 932.559V952.751C1527.08 957.505 1522.42 963.444 1516.59 963.444Z" fill="white"/>
<path d="M1591.23 835.158H1213.34C1207.51 835.158 1202.85 830.408 1202.85 824.469V804.273C1202.85 798.334 1207.51 793.583 1213.34 793.583H1590.06C1595.9 793.583 1600.56 798.334 1600.56 804.273V824.469C1600.56 829.219 1597.06 835.158 1591.23 835.158Z" fill="white"/>
<path d="M913.603 765.044C939.261 765.044 964.922 767.42 989.414 773.36V724.655C989.414 655.758 1024.4 615.37 1094.39 615.37H1120.04V436.002H1036.07C855.285 436.002 785.308 529.844 785.308 699.711V787.612C826.127 773.36 869.285 765.044 913.603 765.044Z" fill="white"/>
<path d="M1670.55 1411.22C1651.89 1260.36 1537.59 1134.44 1390.63 1105.93C1349.81 1097.62 1308.99 1096.43 1269.34 1103.56C1268.17 1103.56 1268.17 1102.37 1267 1102.37C1202.86 965.765 1065.23 875.486 915.941 875.486C766.652 875.486 630.194 963.391 564.879 1100C563.713 1100 563.713 1101.18 562.547 1101.18C520.56 1096.43 478.572 1098.8 436.584 1109.5C291.961 1145.13 182.327 1268.67 162.499 1418.35C160.167 1433.79 159 1449.23 159 1463.49C159 1508.62 189.325 1550.2 233.645 1556.14C288.462 1564.45 336.281 1521.69 335.114 1467.05C335.114 1458.73 335.114 1449.23 336.281 1440.91C345.612 1364.89 402.761 1300.75 477.404 1282.92C500.732 1276.99 524.058 1275.8 546.218 1279.37C617.364 1288.87 687.342 1252.04 717.667 1187.9C739.829 1140.38 774.818 1098.81 821.471 1076.24C872.785 1051.29 931.104 1047.73 984.757 1066.74C1040.74 1086.93 1082.72 1129.69 1108.38 1183.15C1135.21 1235.42 1148.04 1272.24 1205.19 1279.37C1228.51 1282.92 1293.83 1281.74 1318.32 1280.55C1366.14 1280.55 1413.96 1297.18 1447.78 1331.63C1469.94 1355.39 1486.27 1385.09 1493.27 1418.35C1503.77 1471.8 1490.94 1525.25 1459.44 1565.64C1437.28 1594.15 1406.96 1615.53 1373.14 1625.03C1356.81 1629.79 1340.48 1630.97 1324.15 1630.97H1066.39C1015.08 1630.97 974.256 1589.4 974.256 1537.13V1189.08C974.256 1174.83 962.595 1162.95 948.598 1162.95H912.442C841.294 1164.14 784.147 1244.92 784.147 1330.44V1642.86C784.147 1735.51 857.623 1810.34 948.598 1810.34C948.598 1810.34 1353.31 1809.15 1359.14 1809.15C1452.45 1799.65 1538.76 1750.95 1597.07 1676.11C1655.39 1603.65 1682.21 1508.62 1670.55 1411.22Z" fill="white"/>
</g>
<defs>
<clipPath id="clip0_2_5">
<rect width="2250" height="2250" rx="300" fill="white"/>
</clipPath>
</defs>
</svg>
